<svg width="251" height="76" viewBox="0 0 251 76" fill="none" xmlns="http://www.w3.org/2000/svg">
<rect width="222.149" height="76" rx="10" fill="#003D06"/>
<path d="M73.5952 45.3044H70.7997L77.081 27.8498H80.1236L86.4048 45.3044H83.6094L78.6747 31.0203H78.5384L73.5952 45.3044ZM74.0639 38.4691H83.1321V40.685H74.0639V38.4691ZM93.4105 45.56C92.3537 45.56 91.4105 45.2901 90.581 44.7504C89.7571 44.2049 89.1094 43.4294 88.6378 42.4237C88.1719 41.4123 87.9389 40.1992 87.9389 38.7845C87.9389 37.3697 88.1747 36.1595 88.6463 35.1538C89.1236 34.1481 89.777 33.3782 90.6065 32.8441C91.4361 32.31 92.3764 32.043 93.4276 32.043C94.2401 32.043 94.8935 32.1794 95.3878 32.4521C95.8878 32.7191 96.2741 33.0316 96.5469 33.3896C96.8253 33.7475 97.0412 34.0629 97.1946 34.3356H97.348V27.8498H99.8963V45.3044H97.4077V43.2674H97.1946C97.0412 43.5458 96.8196 43.864 96.5298 44.222C96.2457 44.5799 95.8537 44.8924 95.3537 45.1595C94.8537 45.4265 94.206 45.56 93.4105 45.56ZM93.973 43.3867C94.706 43.3867 95.3253 43.1936 95.831 42.8072C96.3423 42.4151 96.7287 41.8725 96.9901 41.1794C97.2571 40.4862 97.3906 39.6794 97.3906 38.7589C97.3906 37.8498 97.2599 37.0544 96.9986 36.3725C96.7372 35.6907 96.3537 35.1595 95.848 34.7788C95.3423 34.3981 94.7173 34.2078 93.973 34.2078C93.206 34.2078 92.5668 34.4066 92.0554 34.8044C91.544 35.2021 91.1577 35.7447 90.8963 36.4322C90.6406 37.1197 90.5128 37.8953 90.5128 38.7589C90.5128 39.6339 90.6435 40.4208 90.9048 41.1197C91.1662 41.8186 91.5526 42.3725 92.0639 42.7816C92.581 43.185 93.2173 43.3867 93.973 43.3867ZM108.434 45.56C107.377 45.56 106.434 45.2901 105.604 44.7504C104.781 44.2049 104.133 43.4294 103.661 42.4237C103.195 41.4123 102.962 40.1992 102.962 38.7845C102.962 37.3697 103.198 36.1595 103.67 35.1538C104.147 34.1481 104.8 33.3782 105.63 32.8441C106.46 32.31 107.4 32.043 108.451 32.043C109.263 32.043 109.917 32.1794 110.411 32.4521C110.911 32.7191 111.298 33.0316 111.57 33.3896C111.849 33.7475 112.065 34.0629 112.218 34.3356H112.371V27.8498H114.92V45.3044H112.431V43.2674H112.218C112.065 43.5458 111.843 43.864 111.553 44.222C111.269 44.5799 110.877 44.8924 110.377 45.1595C109.877 45.4265 109.229 45.56 108.434 45.56ZM108.996 43.3867C109.729 43.3867 110.349 43.1936 110.854 42.8072C111.366 42.4151 111.752 41.8725 112.013 41.1794C112.281 40.4862 112.414 39.6794 112.414 38.7589C112.414 37.8498 112.283 37.0544 112.022 36.3725C111.761 35.6907 111.377 35.1595 110.871 34.7788C110.366 34.3981 109.741 34.2078 108.996 34.2078C108.229 34.2078 107.59 34.4066 107.079 34.8044C106.567 35.2021 106.181 35.7447 105.92 36.4322C105.664 37.1197 105.536 37.8953 105.536 38.7589C105.536 39.6339 105.667 40.4208 105.928 41.1197C106.19 41.8186 106.576 42.3725 107.087 42.7816C107.604 43.185 108.241 43.3867 108.996 43.3867ZM131.019 32.2134V34.2589H123.869V32.2134H131.019ZM125.786 29.0771H128.335V41.4606C128.335 41.9549 128.408 42.3271 128.556 42.5771C128.704 42.8214 128.894 42.989 129.127 43.0799C129.366 43.1651 129.624 43.2078 129.903 43.2078C130.107 43.2078 130.286 43.1936 130.44 43.1651C130.593 43.1367 130.712 43.114 130.798 43.097L131.258 45.2021C131.11 45.2589 130.9 45.3157 130.627 45.3725C130.354 45.435 130.013 45.4691 129.604 45.4748C128.934 45.4862 128.309 45.3669 127.729 45.1169C127.15 44.8669 126.681 44.4805 126.323 43.9578C125.965 43.435 125.786 42.7788 125.786 41.989V29.0771ZM139.212 45.5686C137.984 45.5686 136.913 45.2873 135.999 44.7248C135.084 44.1623 134.374 43.3754 133.868 42.364C133.362 41.3526 133.109 40.1708 133.109 38.8186C133.109 37.4606 133.362 36.2731 133.868 35.2561C134.374 34.239 135.084 33.4492 135.999 32.8867C136.913 32.3242 137.984 32.043 139.212 32.043C140.439 32.043 141.51 32.3242 142.425 32.8867C143.339 33.4492 144.05 34.239 144.555 35.2561C145.061 36.2731 145.314 37.4606 145.314 38.8186C145.314 40.1708 145.061 41.3526 144.555 42.364C144.05 43.3754 143.339 44.1623 142.425 44.7248C141.51 45.2873 140.439 45.5686 139.212 45.5686ZM139.22 43.4294C140.016 43.4294 140.675 43.2191 141.197 42.7987C141.72 42.3782 142.107 41.8186 142.357 41.1197C142.612 40.4208 142.74 39.6509 142.74 38.81C142.74 37.9748 142.612 37.2078 142.357 36.5089C142.107 35.8044 141.72 35.239 141.197 34.8129C140.675 34.3867 140.016 34.1737 139.22 34.1737C138.419 34.1737 137.754 34.3867 137.226 34.8129C136.703 35.239 136.314 35.8044 136.058 36.5089C135.808 37.2078 135.683 37.9748 135.683 38.81C135.683 39.6509 135.808 40.4208 136.058 41.1197C136.314 41.8186 136.703 42.3782 137.226 42.7987C137.754 43.2191 138.419 43.4294 139.22 43.4294ZM169.212 33.5259H166.553C166.45 32.9578 166.26 32.4578 165.982 32.0259C165.703 31.5941 165.362 31.2276 164.959 30.9265C164.555 30.6254 164.104 30.3981 163.604 30.2447C163.109 30.0913 162.584 30.0146 162.027 30.0146C161.021 30.0146 160.121 30.2674 159.325 30.7731C158.536 31.2788 157.911 32.0203 157.45 32.9975C156.996 33.9748 156.768 35.168 156.768 36.5771C156.768 37.9975 156.996 39.1964 157.45 40.1737C157.911 41.1509 158.538 41.8896 159.334 42.3896C160.129 42.8896 161.024 43.1396 162.018 43.1396C162.57 43.1396 163.092 43.0657 163.587 42.918C164.087 42.7646 164.538 42.5401 164.942 42.2447C165.345 41.9492 165.686 41.5884 165.964 41.1623C166.249 40.7305 166.445 40.2362 166.553 39.6794L169.212 39.6879C169.07 40.5458 168.794 41.3356 168.385 42.0572C167.982 42.7731 167.462 43.3924 166.825 43.9151C166.195 44.4322 165.473 44.8328 164.661 45.1169C163.848 45.4009 162.962 45.543 162.001 45.543C160.49 45.543 159.143 45.185 157.962 44.4691C156.78 43.7475 155.848 42.7163 155.166 41.3754C154.49 40.0345 154.152 38.435 154.152 36.5771C154.152 34.7134 154.493 33.114 155.175 31.7788C155.857 30.4379 156.788 29.4095 157.97 28.6936C159.152 27.972 160.496 27.6112 162.001 27.6112C162.928 27.6112 163.791 27.7447 164.592 28.0117C165.399 28.2731 166.124 28.6595 166.766 29.1708C167.408 29.6765 167.939 30.2958 168.359 31.0288C168.78 31.7561 169.064 32.5884 169.212 33.5259ZM175.968 45.5941C175.138 45.5941 174.388 45.4407 173.718 45.1339C173.048 44.8214 172.516 44.3697 172.124 43.7788C171.738 43.1879 171.545 42.4634 171.545 41.6055C171.545 40.8669 171.687 40.2589 171.971 39.7816C172.255 39.3044 172.638 38.9265 173.121 38.6481C173.604 38.3697 174.144 38.1595 174.741 38.0174C175.337 37.8754 175.945 37.7674 176.565 37.6936C177.349 37.6026 177.985 37.5288 178.474 37.472C178.962 37.4095 179.317 37.31 179.539 37.1737C179.761 37.0373 179.871 36.8157 179.871 36.5089V36.4492C179.871 35.7049 179.661 35.1282 179.241 34.7191C178.826 34.31 178.207 34.1055 177.383 34.1055C176.525 34.1055 175.849 34.2958 175.354 34.6765C174.866 35.0515 174.528 35.4691 174.34 35.9294L171.945 35.3839C172.229 34.5884 172.644 33.9464 173.19 33.4578C173.741 32.9634 174.374 32.6055 175.09 32.3839C175.806 32.1566 176.559 32.043 177.349 32.043C177.871 32.043 178.425 32.1055 179.011 32.2305C179.602 32.3498 180.153 32.5714 180.664 32.8953C181.181 33.2191 181.604 33.6822 181.934 34.2845C182.263 34.8811 182.428 35.6566 182.428 36.6112V45.3044H179.94V43.5146H179.837C179.673 43.8441 179.425 44.168 179.096 44.4862C178.766 44.8044 178.343 45.0686 177.826 45.2788C177.309 45.489 176.69 45.5941 175.968 45.5941ZM176.522 43.5487C177.227 43.5487 177.829 43.4095 178.329 43.1311C178.835 42.8526 179.218 42.489 179.479 42.0401C179.746 41.5856 179.88 41.0998 179.88 40.5828V38.8953C179.789 38.9862 179.613 39.0714 179.352 39.1509C179.096 39.2248 178.803 39.2901 178.474 39.347C178.144 39.3981 177.823 39.4464 177.511 39.4919C177.198 39.5316 176.937 39.5657 176.727 39.5941C176.232 39.6566 175.781 39.7617 175.371 39.9095C174.968 40.0572 174.644 40.2703 174.4 40.5487C174.161 40.8214 174.042 41.185 174.042 41.6396C174.042 42.2703 174.275 42.7475 174.741 43.0714C175.207 43.3896 175.8 43.5487 176.522 43.5487ZM185.822 45.3044V32.2134H188.286V34.293H188.422C188.661 33.5884 189.081 33.0345 189.683 32.6311C190.291 32.222 190.979 32.0174 191.746 32.0174C191.905 32.0174 192.092 32.0231 192.308 32.0345C192.53 32.0458 192.703 32.06 192.828 32.0771V34.5146C192.726 34.4862 192.544 34.4549 192.283 34.4208C192.021 34.3811 191.76 34.3612 191.499 34.3612C190.896 34.3612 190.359 34.489 189.888 34.7447C189.422 34.9947 189.053 35.3441 188.78 35.793C188.507 36.2362 188.371 36.7419 188.371 37.31V45.3044H185.822ZM201.918 32.2134V34.2589H194.767V32.2134H201.918ZM196.685 29.0771H199.233V41.4606C199.233 41.9549 199.307 42.3271 199.455 42.5771C199.602 42.8214 199.793 42.989 200.026 43.0799C200.264 43.1651 200.523 43.2078 200.801 43.2078C201.006 43.2078 201.185 43.1936 201.338 43.1651C201.491 43.1367 201.611 43.114 201.696 43.097L202.156 45.2021C202.009 45.2589 201.798 45.3157 201.526 45.3725C201.253 45.435 200.912 45.4691 200.503 45.4748C199.832 45.4862 199.207 45.3669 198.628 45.1169C198.048 44.8669 197.58 44.4805 197.222 43.9578C196.864 43.435 196.685 42.7788 196.685 41.989V29.0771Z" fill="white"/>
<path d="M49.3751 59.9976C50.9076 59.9976 52.1501 58.7888 52.1501 57.2978C52.1501 55.8068 50.9076 54.598 49.3751 54.598C47.8426 54.598 46.6001 55.8068 46.6001 57.2978C46.6001 58.7888 47.8426 59.9976 49.3751 59.9976Z" stroke="white" stroke-width="3" stroke-linecap="round" stroke-linejoin="round"/>
<path d="M30.8751 59.9976C32.4076 59.9976 33.6501 58.7888 33.6501 57.2978C33.6501 55.8068 32.4076 54.598 30.8751 54.598C29.3425 54.598 28.1001 55.8068 28.1001 57.2978C28.1001 58.7888 29.3425 59.9976 30.8751 59.9976Z" stroke="white" stroke-width="3" stroke-linecap="round" stroke-linejoin="round"/>
<path d="M22.55 27.5998H54L50.3 47.3985H26.25L22.55 27.5998ZM22.55 27.5998C22.2417 26.3998 20.7 24 17 24" stroke="white" stroke-width="3" stroke-linecap="round" stroke-linejoin="round"/>
<path d="M50.3 47.3985H26.25H22.977C19.676 47.3985 17.925 48.8045 17.925 50.9982C17.925 53.1919 19.676 54.598 22.977 54.598H49.375" stroke="white" stroke-width="3" stroke-linecap="round" stroke-linejoin="round"/>
</svg>
