<svg width="236" height="84" viewBox="0 0 236 84" fill="none" xmlns="http://www.w3.org/2000/svg">
<g filter="url(#filter0_d_100_85)">
<rect x="4" width="223.637" height="76" rx="10" fill="#003D06"/>
<path d="M56.5568 48V24.7273H65.0795C66.7311 24.7273 68.0985 25 69.1818 25.5455C70.2652 26.0833 71.0758 26.8144 71.6136 27.7386C72.1515 28.6553 72.4205 29.6894 72.4205 30.8409C72.4205 31.8106 72.2424 32.6288 71.8864 33.2955C71.5303 33.9545 71.053 34.4848 70.4545 34.8864C69.8636 35.2803 69.2121 35.5682 68.5 35.75V35.9773C69.2727 36.0152 70.0265 36.2652 70.7614 36.7273C71.5038 37.1818 72.1174 37.8295 72.6023 38.6705C73.0871 39.5114 73.3295 40.5341 73.3295 41.7386C73.3295 42.928 73.0492 43.9962 72.4886 44.9432C71.9356 45.8826 71.0795 46.6288 69.9205 47.1818C68.7614 47.7273 67.2803 48 65.4773 48H56.5568ZM60.0682 44.9886H65.1364C66.8182 44.9886 68.0227 44.6629 68.75 44.0114C69.4773 43.3598 69.8409 42.5455 69.8409 41.5682C69.8409 40.8333 69.6553 40.1591 69.2841 39.5455C68.9129 38.9318 68.3826 38.4432 67.6932 38.0795C67.0114 37.7159 66.2008 37.5341 65.2614 37.5341H60.0682V44.9886ZM60.0682 34.7955H64.7727C65.5606 34.7955 66.2689 34.6439 66.8977 34.3409C67.5341 34.0379 68.0379 33.6136 68.4091 33.0682C68.7879 32.5152 68.9773 31.8636 68.9773 31.1136C68.9773 30.1515 68.6402 29.3447 67.9659 28.6932C67.2917 28.0417 66.2576 27.7159 64.8636 27.7159H60.0682V34.7955ZM88.2784 40.7614V30.5455H91.6875V48H88.3466V44.9773H88.1648C87.7633 45.9091 87.1193 46.6856 86.233 47.3068C85.3542 47.9205 84.2595 48.2273 82.9489 48.2273C81.8277 48.2273 80.8352 47.9811 79.9716 47.4886C79.1155 46.9886 78.4413 46.25 77.9489 45.2727C77.464 44.2955 77.2216 43.0871 77.2216 41.6477V30.5455H80.6193V41.2386C80.6193 42.428 80.9489 43.375 81.608 44.0795C82.267 44.7841 83.1231 45.1364 84.1761 45.1364C84.8125 45.1364 85.4451 44.9773 86.0739 44.6591C86.7102 44.3409 87.2367 43.8598 87.6534 43.2159C88.0777 42.572 88.286 41.7538 88.2784 40.7614ZM98.4006 54.5455C97.893 54.5455 97.4309 54.5038 97.0142 54.4205C96.5975 54.3447 96.2869 54.2614 96.0824 54.1705L96.9006 51.3864C97.5218 51.553 98.0748 51.625 98.5597 51.6023C99.0445 51.5795 99.4725 51.3977 99.8438 51.0568C100.223 50.7159 100.556 50.1591 100.844 49.3864L101.264 48.2273L94.8778 30.5455H98.5142L102.935 44.0909H103.116L107.537 30.5455H111.185L103.991 50.3295C103.658 51.2386 103.234 52.0076 102.719 52.6364C102.204 53.2727 101.59 53.75 100.878 54.0682C100.166 54.3864 99.34 54.5455 98.4006 54.5455ZM126.244 37.6364V48H122.847V30.5455H126.108V33.3864H126.324C126.725 32.4621 127.354 31.7197 128.21 31.1591C129.074 30.5985 130.161 30.3182 131.472 30.3182C132.661 30.3182 133.703 30.5682 134.597 31.0682C135.491 31.5606 136.184 32.2955 136.676 33.2727C137.169 34.25 137.415 35.4583 137.415 36.8977V48H134.017V37.3068C134.017 36.0417 133.688 35.053 133.028 34.3409C132.369 33.6212 131.464 33.2614 130.312 33.2614C129.525 33.2614 128.824 33.4318 128.21 33.7727C127.604 34.1136 127.123 34.6136 126.767 35.2727C126.419 35.9242 126.244 36.7121 126.244 37.6364ZM149.324 48.3523C147.688 48.3523 146.259 47.9773 145.04 47.2273C143.82 46.4773 142.873 45.428 142.199 44.0795C141.525 42.7311 141.188 41.1553 141.188 39.3523C141.188 37.5417 141.525 35.9583 142.199 34.6023C142.873 33.2462 143.82 32.1932 145.04 31.4432C146.259 30.6932 147.688 30.3182 149.324 30.3182C150.96 30.3182 152.388 30.6932 153.608 31.4432C154.828 32.1932 155.775 33.2462 156.449 34.6023C157.123 35.9583 157.46 37.5417 157.46 39.3523C157.46 41.1553 157.123 42.7311 156.449 44.0795C155.775 45.428 154.828 46.4773 153.608 47.2273C152.388 47.9773 150.96 48.3523 149.324 48.3523ZM149.335 45.5C150.396 45.5 151.275 45.2197 151.972 44.6591C152.669 44.0985 153.184 43.3523 153.517 42.4205C153.858 41.4886 154.028 40.4621 154.028 39.3409C154.028 38.2273 153.858 37.2045 153.517 36.2727C153.184 35.3333 152.669 34.5795 151.972 34.0114C151.275 33.4432 150.396 33.1591 149.335 33.1591C148.267 33.1591 147.381 33.4432 146.676 34.0114C145.979 34.5795 145.46 35.3333 145.119 36.2727C144.786 37.2045 144.619 38.2273 144.619 39.3409C144.619 40.4621 144.786 41.4886 145.119 42.4205C145.46 43.3523 145.979 44.0985 146.676 44.6591C147.381 45.2197 148.267 45.5 149.335 45.5ZM164.506 48L159.369 30.5455H162.881L166.301 43.3636H166.472L169.903 30.5455H173.415L176.824 43.3068H176.994L180.392 30.5455H183.903L178.778 48H175.312L171.767 35.3977H171.506L167.96 48H164.506Z" fill="white"/>
</g>
<defs>
<filter id="filter0_d_100_85" x="0" y="0" width="231.637" height="84" filterUnits="userSpaceOnUse" color-interpolation-filters="sRGB">
<feFlood flood-opacity="0" result="BackgroundImageFix"/>
<feColorMatrix in="SourceAlpha" type="matrix" values="0 0 0 0 0 0 0 0 0 0 0 0 0 0 0 0 0 0 127 0" result="hardAlpha"/>
<feOffset dy="4"/>
<feGaussianBlur stdDeviation="2"/>
<feComposite in2="hardAlpha" operator="out"/>
<feColorMatrix type="matrix" values="0 0 0 0 0 0 0 0 0 0 0 0 0 0 0 0 0 0 0.25 0"/>
<feBlend mode="normal" in2="BackgroundImageFix" result="effect1_dropShadow_100_85"/>
<feBlend mode="normal" in="SourceGraphic" in2="effect1_dropShadow_100_85" result="shape"/>
</filter>
</defs>
</svg>
