<svg width="20" height="19" viewBox="0 0 20 19" fill="none" xmlns="http://www.w3.org/2000/svg">
<path d="M11.928 1.18906L13.5335 4.33797C13.7772 4.80556 14.2216 5.13432 14.7376 5.20739L18.1277 5.68232C19.9411 5.93802 20.6434 8.22481 19.3032 9.49606L16.9809 11.6879C16.5796 12.0678 16.3932 12.6303 16.4936 13.1783L17.0598 16.3929C17.3752 18.1829 15.5547 19.5784 13.9564 18.7601L10.7167 17.1162C10.2652 16.8898 9.7348 16.8898 9.28329 17.1162L6.04365 18.7601C4.44534 19.5711 2.62484 18.1829 2.9402 16.3929L3.50642 13.1783C3.60676 12.6303 3.42041 12.0678 3.01904 11.6879L0.696828 9.49606C-0.643459 8.23212 0.0589346 5.93802 1.87227 5.68232L5.26241 5.20739C5.77843 5.13432 6.23001 4.81286 6.46651 4.33797L8.07201 1.18906C8.88908 -0.396353 11.1181 -0.396353 11.928 1.18906Z" fill="#FCD53F"/>
</svg>
