<svg width="18" height="19" viewBox="0 0 18 19" fill="none" xmlns="http://www.w3.org/2000/svg">
<g id="&#240;&#159;&#166;&#134; icon &#34;store&#34;">
<path id="Vector" d="M3.90952 17.5204V12.0048C3.90952 11.174 4.48934 10.5005 5.20457 10.5005H7.79468C8.50991 10.5005 9.08973 11.174 9.08973 12.0048V17.5204H14.7016C15.4169 17.5204 15.9967 16.8469 15.9967 16.0161V7.99344H16.86V16.0161C16.86 17.4008 15.8937 18.5232 14.7016 18.5232H3.47784C2.28578 18.5232 1.31942 17.4008 1.31942 16.0161V7.99344H2.18279V16.0161C2.18279 16.8469 2.7626 17.5204 3.47784 17.5204H3.90952ZM4.77289 17.5204H8.22636V12.0048C8.22636 11.7279 8.03309 11.5034 7.79468 11.5034H5.20457C4.96616 11.5034 4.77289 11.7279 4.77289 12.0048V17.5204ZM11.6798 12.0048V14.0105C11.6798 14.2874 11.8731 14.5119 12.1115 14.5119H12.9749C13.2133 14.5119 13.4066 14.2874 13.4066 14.0105V12.0048C13.4066 11.7279 13.2133 11.5034 12.9749 11.5034H12.1115C11.8731 11.5034 11.6798 11.7279 11.6798 12.0048ZM10.8165 12.0048C10.8165 11.174 11.3963 10.5005 12.1115 10.5005H12.9749C13.6901 10.5005 14.2699 11.174 14.2699 12.0048V14.0105C14.2699 14.8412 13.6901 15.5147 12.9749 15.5147H12.1115C11.3963 15.5147 10.8165 14.8412 10.8165 14.0105V12.0048ZM3.90952 8.49486H1.75111C1.03587 8.49486 0.456055 7.82138 0.456055 6.99061V6.1809C0.456055 5.98953 0.487492 5.79992 0.548681 5.62223L2.21366 0.787364C2.27922 0.596996 2.43796 0.472168 2.61447 0.472168H15.565C15.7415 0.472168 15.9002 0.596996 15.9658 0.787364L17.6308 5.62223C17.692 5.79992 17.7234 5.98953 17.7234 6.1809V6.99061C17.7234 7.82138 17.1436 8.49486 16.4283 8.49486H14.2699C13.9382 8.49486 13.6357 8.35003 13.4066 8.11183C13.1774 8.35003 12.8749 8.49486 12.5432 8.49486H9.95309C9.62141 8.49486 9.31885 8.35003 9.08973 8.11183C8.86061 8.35003 8.55805 8.49486 8.22636 8.49486H5.63626C5.30457 8.49486 5.00201 8.35003 4.77289 8.11183C4.54377 8.35003 4.24121 8.49486 3.90952 8.49486ZM2.90674 1.475L1.3503 5.99468C1.3299 6.05391 1.31942 6.11711 1.31942 6.1809V6.99061C1.31942 7.26753 1.51269 7.49203 1.75111 7.49203H3.90952C4.14794 7.49203 4.34121 7.26753 4.34121 6.99061V5.98777C4.34121 5.71084 4.53448 5.48635 4.77289 5.48635C5.0113 5.48635 5.20457 5.71084 5.20457 5.98777V6.99061C5.20457 7.26753 5.39785 7.49203 5.63626 7.49203H8.22636C8.46477 7.49203 8.65804 7.26753 8.65804 6.99061V5.98777C8.65804 5.71084 8.85131 5.48635 9.08973 5.48635C9.32814 5.48635 9.52141 5.71084 9.52141 5.98777V6.99061C9.52141 7.26753 9.71468 7.49203 9.95309 7.49203H12.5432C12.7816 7.49203 12.9749 7.26753 12.9749 6.99061V5.98777C12.9749 5.71084 13.1682 5.48635 13.4066 5.48635C13.645 5.48635 13.8382 5.71084 13.8382 5.98777V6.99061C13.8382 7.26753 14.0315 7.49203 14.2699 7.49203H16.4283C16.6668 7.49203 16.86 7.26753 16.86 6.99061V6.1809C16.86 6.11711 16.8496 6.05391 16.8292 5.99468L15.2727 1.475H2.90674Z" fill="#F4794E"/>
</g>
</svg>
